<?xml version="1.0" encoding="utf-8"?>
<!-- Generator: Adobe Illustrator 26.0.0, SVG Export Plug-In . SVG Version: 6.00 Build 0)  -->
<svg version="1.1" id="Layer_1" xmlns="http://www.w3.org/2000/svg" xmlns:xlink="http://www.w3.org/1999/xlink" x="0px" y="0px"
	 viewBox="0 0 5000 5000" style="enable-background:new 0 0 5000 5000;" xml:space="preserve">
<style type="text/css">
	.st0{fill:#E6E7E9;}
	.st1{fill:#0C0C0C;}
	.st2{fill:#F2F2F2;}
	.st3{fill:#B0B0B1;}
	.st4{fill:#191A1B;}
	.st5{fill:#B0B1B1;}
	.st6{fill:#AFAFB0;}
	.st7{fill:#7F7F7F;}
	.st8{fill:#F78F29;}
	.st9{fill:#DE412A;}
	.st10{fill:#E85B29;}
	.st11{fill:#EAE7D5;}
	.st12{font-family:'Copperplate';}
	.st13{font-size:643.9346px;}
	.st14{font-size:617.8033px;}
	.st15{font-size:502.6413px;}
	.st16{font-size:477.9768px;}
</style>
<path class="st0" d="M5569.63,5616.33c-0.97,2.46-3.05,2-4.84,1.62c-1.52-0.32-3.27-1.16-2.57-3.2c0.77-2.22,2.8-2.47,4.75-1.88
	C5568.52,5613.35,5569.78,5614.37,5569.63,5616.33z"/>
<g>
	<path class="st1" d="M3695.06,7301.77c-0.32,9.4-0.64,18.81-0.96,28.21c-4.64,18.26,1.25,37.13-3.19,55.41
		c-0.42,9.7-1.19,19.4-1.19,29.11c0,195.88,0.09,391.76,0.2,587.64c0,4.84,0.49,9.68,0.75,14.53c-0.35,6.93-1,13.86-1,20.79
		c0.4,677.26,0.88,1354.53,1.15,2031.79c0.01,31.77,2.19,62.34,20.43,90.09c8.96,13.63,4.23,28.18-3.32,41.56
		c-13.55,24.02-34.71,39.59-58.37,52.19c-21.62,11.51-44.83,19.06-68.45,25.16c-76.41,19.72-153.93,31.43-232.9,35.2
		c-290.95,13.89-582.12,18.22-873.33,19.57c-190.9,0.88-381.76-4.33-572.58-9.71c-90.5-2.55-180.98-6.83-271.38-11.99
		c-75.81-4.33-151.33-12.11-224.8-33.08c-34.31-9.8-67.47-22.07-96.31-43.95c-8.95-6.79-16.96-14.33-23.69-23.36
		c-13.35-17.89-16.33-35.97-4.42-56.23c14.61-24.85,17.26-52.73,16.56-80.83c-2.12-85.69-0.92-171.39-0.9-257.08
		c0.21-798.5,0.62-1597.01,0.93-2395.51c0-12.48,0.71-25.05-2.72-37.29c-0.94-27.13-1.69-54.26-2.87-81.38
		c-1.02-23.48-9.88-44.53-20.52-64.71c-7.56-0.68-7.95,5.59-9.78,9.45c-12.54,26.43-26.46,52.11-40.72,77.64
		c-33.95,60.76-76.99,114.05-128.64,160.72c-25.4,22.95-45.56,50.75-65.99,78.11c-5.05,6.76-6.83,15.13-9.74,22.96
		c-12.26,33-40.81,47.24-75.31,38.37c-8.17-2.1-15.88-4.98-23.27-8.99C716.37,7506,513.17,7397.34,311.82,7285.32
		c-7.9-4.4-15.84-8.82-23.29-13.93c-34.99-24-43.5-59.19-23-96.48c28.52-51.85,57.54-103.42,86.13-155.23
		c8.03-14.55,17.53-28.34,23.19-44.14l0.05-0.12c6.55-26.93,21.61-49.27,38.17-70.8c17.13-29.93,33.84-60.11,51.48-89.74
		c43.93-73.77,85.26-149.03,128.21-223.35c86.7-150.03,174.23-299.59,266.97-446c32.1-50.68,68.84-97.76,113.06-138.94
		c48.45-45.12,104.1-75.96,168.03-92.85c45.73-12.09,91.45-24.15,137.59-34.64c73.49-16.71,143.71-43.66,213.74-70.67
		c146.87-56.65,287.9-126.18,428.05-197.51c12.39-6.31,25.06-12.47,36.37-20.44c52.31-36.86,110.57-47.38,172.84-39.87
		c47.06,5.67,94.36,7.82,141.6,10.43c121.72,6.74,243.53,10.25,365.42,4.84c80.68-3.58,161.38-7.05,241.82-14.75
		c28.64-2.74,57.01-0.84,84.83,7.17c10.07,2.9,19.71,6.67,28.99,11.55c147.84,77.59,297.42,151.74,451.6,215.87
		c91.16,37.92,184.75,69.85,279.97,96.37c32.8,9.14,66.23,16.07,99.46,23.62c83.93,19.05,155.02,60.36,214.06,122.77
		c2.34,2.48,5.11,4.55,7.68,6.81c119.92,151.94,212.63,320.99,307.73,488.57c118.46,208.76,237.47,417.2,356.17,625.82
		c7.2,12.66,14.06,25.36,18.54,39.53c10.95,34.58-7.6,71.47-34.14,86.42c-21.82,12.29-43.75,24.37-65.75,36.33
		c-183.33,99.72-366.7,199.38-550.01,299.13c-12.86,7-25.74,13.81-40.04,17.43c-8.37,2.12-16.74,2.37-25.08-0.16
		c-17.45-1.29-30.31-10.85-36.15-26.21c-18.4-48.41-52.95-84.36-89.39-118.76c-34.64-32.7-66.06-68.57-92.67-107.47
		c-25.54-37.34-47.77-77.42-66.3-119.17c-2.78-6.26-3.41-17.63-12.22-16.93c-7.93,0.63-7.18,11.64-10.36,18.03
		c-4.03,8.08-7.73,16.17-7.19,25.5C3695.38,7289.24,3698.18,7295.98,3695.06,7301.77z"/>
	<path class="st2" d="M3904.05,6462.02c-2.46,39.81-12.37,78.32-21.07,116.97c-14.35,63.77-25,128.45-45.86,190.65
		c-19.71,58.77-43.33,115.77-71.76,171.03c-50.64,98.41-85.91,202-100.53,312.33c-5.23,39.45-8.87,78.7-8.84,118.54
		c0.69,899.47,1.11,1798.95,1.44,2698.42c0.01,35.25,2.5,69.72,22.16,100.41c3.83,5.97,1.72,10.31-1.31,15.24
		c-9.4,15.3-22.9,26-38.31,34.6c-35.12,19.58-73.73,28.65-112.49,37.24c-75.11,16.65-151.46,22-228.07,25.12
		c-176.1,7.16-352.29,10.23-528.48,14.08c-260.57,5.7-521.02,1.91-781.5-4.71c-92.62-2.35-185.22-5.21-277.74-9.67
		c-83.42-4.02-166.99-7.62-249.24-24.26c-36.95-7.48-73.13-17.29-106.97-34.33c-15.63-7.87-30.13-17.38-41.49-31.1
		c-5.81-7.01-7.91-13.19-2.85-22.43c18.33-33.44,21.45-70.11,20.45-107.41c-0.32-11.83-0.99-23.66-0.99-35.49
		c0.09-723.2,0.21-1446.4,0.4-2169.61c0.04-152.58-0.79-305.18,1.02-457.74c0.85-71.61-9.12-141.37-21.92-211.39
		c-12.55-68.63-38.38-132-68.75-194.04c-44.44-90.77-83.19-183.69-108.19-281.98c-20.08-78.97-36.87-158.58-50.38-238.92
		c-1-5.95,2.15-16.74-8.2-16.21c-11.28,0.58-4.59,10.73-5.42,16.6c-0.77,5.45-0.03,11.11,0.05,16.68
		c1.83,133.95,14.91,266.66,43.63,397.65c4.93,22.48,8.21,45.22,11.93,67.9c1.36,8.27,1.42,16.65,0.39,25
		c-1.17,9.51-4.81,17.64-14.2,21.53c-9.88,4.1-17.87-0.68-24.46-7.26c-23.51-23.47-42.21-50.65-52.21-82.19
		c-12.82-40.44-22.6-81.82-19.23-125.63c-1.21,32.12-2.43,63.51-0.8,95.11c3.4,65.77,29.85,122.14,66.08,175.52
		c23.82,35.1,45.87,71.22,58.9,112.45c13.99,44.27,13.79,87.38-1.04,131.16c-21.24,62.72-56.35,117.94-92.32,172.65
		c-6.05,9.2-12.14,18.59-18.94,27.38c-15.92,23.6-32.72,46.48-41.5,74.35c-5.25,16.67-18.23,21.91-35.07,17.3
		c-5.96-1.63-11.71-4.46-17.18-7.44C730.9,7476.1,527.8,7367.47,326.51,7255.52c-6.69-3.72-13.49-7.32-19.75-11.69
		c-20.37-14.22-24.47-30.36-12.51-52.21c22.37-40.91,45.29-81.52,67.94-122.27c154.14-277.41,309.65-554.03,474.86-825.07
		c36.97-60.66,73.7-121.46,121.03-174.97c28.32-32.01,60.14-60.15,95.58-83.8c31.61-21.1,68.07-31.47,104.1-42.12
		c40.03-11.83,80.51-22.03,121.31-30.85c76.45-16.54,149.26-44.37,222.07-71.98c126.33-47.9,247.7-106.95,368.72-166.68
		c43.06-21.25,85.7-43.19,126.6-68.51c32.53-20.14,68.96-25.59,106.49-23.03c50.7,3.46,101.28,8.35,152.04,11.21
		c135.7,7.63,271.41,11.26,407.24,4.65c74.42-3.63,148.84-7.19,223.09-13.88c37.51-3.38,72.01,3.91,105.88,23.34
		c47.58,27.3,97.98,49.7,147.38,73.78c85.66,41.76,170.69,85.04,258.76,121.44c111.23,45.97,224.45,86.75,341.19,116.86
		c25.59,6.6,51.45,12.14,77.2,18.08c91.12,21.03,164.37,69.9,222.22,142.7c38.18,48.05,71.68,99.34,104.6,151.04
		c79.31,124.53,149.92,254.12,222.86,382.36c105.63,185.71,211.34,371.38,316.97,557.09c4.12,7.24,8.41,14.52,11.36,22.26
		c7.88,20.69,2.67,38.39-14.91,51.81c-4.94,3.77-10.57,6.71-16.06,9.69c-202.92,110.4-405.86,220.76-608.81,331.11
		c-4.28,2.33-8.53,4.78-13.04,6.59c-19.75,7.94-32.11,2.9-39.36-17.17c-9.12-25.27-26.75-45.45-39.5-68.52
		c-41.04-58.1-77.24-118.84-106.09-184.12c-32.1-72.63-21.71-141.14,15.54-207.94c19.66-35.27,41.81-69.08,63.31-103.23
		c26.98-42.86,35.02-90.43,37.1-139.55c1.11-26.27,0.58-52.63,0.63-74.17c1.57,27.58-5.87,58.82-12.49,90.12
		c-8.44,39.87-27.72,74.1-56.29,103c-7.76,7.86-16.3,17.18-28.88,11.63c-13.47-5.95-16.07-19.08-14.7-31.91
		c3.86-36.01,10.94-71.52,18.6-106.91c19.61-90.67,29.71-182.56,34.88-275.07c2.25-40.16,0.48-80.47,4.46-120.57
		c0.44-4.46,1.74-10.42-4.75-12.21C3908.49,6454.5,3905.76,6457.81,3904.05,6462.02z"/>
	<path class="st3" d="M3904.05,6462.02c-1.18-6.24,1.8-9.35,7.76-9.38c6.2-0.03,8.32,4.14,8.34,9.67c0.06,11.83-0.56,23.7,0.11,35.5
		c4.17,73.04-2.88,145.3-11.24,217.82c-7.57,65.67-19.41,130.32-32.94,194.84c-3.84,18.32-6.47,36.9-9.41,55.4
		c-0.65,4.08-0.58,8.37-0.23,12.5c0.72,8.52,2.43,17.51,11.17,20.87c8.8,3.38,13.77-4.76,19.03-9.95
		c33.84-33.41,53.48-74.16,60.92-120.81c3.38-21.21,8.54-42.16,9.38-63.8c0.28-7.29,2.97-14.49,5.66-21.57
		c8.67,39.97,8.34,79.89,3.49,120.13c-3.76,31.22-8.39,62.19-23.48,90.14c-12.21,22.62-26.18,44.29-39.53,66.29
		c-11.19,18.43-22.57,36.74-33.92,55.07c-22.07,35.62-33.88,75.08-36.92,116.15c-2.21,29.88,8.47,58.77,19.09,86.87
		c19.09,50.49,49.06,95.05,75.82,141.4c8.93,15.47,21.29,29.29,24.9,47.59c-26.35-21.98-46.28-49.79-68.21-75.73
		c-13.92-16.46-26.69-33.92-39.71-51.12c-29.21-38.61-44.16-83.36-54.67-129.81c-15.92-70.4-20.34-141.83-16.76-213.76
		c1.57-31.43,8.62-61.99,18.68-91.79c13.13-38.89,26.21-77.8,39.87-116.5c30.46-86.36,47.77-175.77,62.05-265.88
		c3.92-24.74,7.28-49.57,10.67-74.39c1.03-7.57,1.35-15.23,1.93-22.86c0.26-3.47,0.58-7.64-3.72-8.44
		C3908.46,6455.8,3906.13,6459.19,3904.05,6462.02z"/>
	<path class="st3" d="M1026.97,7501.95c8.18-24.73,24.52-44.97,37.2-67.21c24.1-42.29,50.71-83.21,66.02-129.99
		c5.86-17.9,9.94-36.21,13.28-54.63c2.1-11.56,0.98-23.46-0.76-35.31c-7.43-50.78-30.01-95.04-57.43-137.43
		c-13.98-21.61-27.13-43.76-40.83-65.55c-20.86-33.16-29.56-69.9-34.29-108.34c-2.99-24.29-4.79-48.5-3.45-72.8
		c1.02-18.42,2.54-37.03,10.13-54.66c0.7,40.96,9.42,80.49,18.79,119.84c8.95,37.59,29.95,68.53,56.35,96.07
		c4.3,4.48,8.91,10.07,15.98,7.58c8.12-2.85,10.64-9.88,11.4-18.21c1.62-17.65-2.45-34.72-5.38-51.73
		c-7.64-44.44-19.41-88.12-25.72-132.82c-4.07-28.85-7.47-57.8-10.92-86.74c-3.87-32.38-8.28-64.73-10.97-97.21
		c-3.22-38.89-2.18-77.91-0.22-116.87c0.09-1.8,2.02-3.51,3.09-5.27c6.9,22.7,8.38,46.38,11.85,69.63
		c15.64,104.88,40.97,207.32,75.47,307.53c4.52,13.14,9.34,26.24,15.08,38.88c32.3,71.13,36.98,146.66,33.48,222.83
		c-2.33,50.75-13.73,100.51-25.2,150.04c-5.88,25.39-15.77,48.92-29.4,70.98c-23.83,38.57-49.8,75.47-81.99,107.72
		C1054.33,7472.49,1040.8,7487.37,1026.97,7501.95z"/>
	<path class="st4" d="M2504.79,6023.24c-77.91-2.95-156.01-5.05-231.91-25.6c-59.66-16.15-114.17-43.94-165.26-78.31
		c-24.5-16.48-44.08-38.38-61.08-62.37c-28.75-40.58-52.8-83.47-63.65-132.72c-2.59-11.75-2.41-23.37-1.94-35.25
		c0.89-22.6,12.8-35.86,33.47-42.66c29.44-9.68,59.37-13.79,90.5-11.29c45.16,3.63,89.86,10.74,134.81,15.92
		c40.86,4.71,81.9,7.08,122.96,7.59c89.84,1.11,179.69,2.85,269.53,0.09c66.89-2.05,133.44-7.95,199.55-18.38
		c36.68-5.78,73.42-7.13,110.32-2.61c2.76,0.34,5.57,0.46,8.29,1.03c39.9,8.42,66.33,29.1,54.01,81.76
		c-21.96,93.83-73.76,168.8-157.27,219.72c-75.07,45.77-156.71,70.98-244.25,78.11C2570.21,6020.93,2537.58,6023.08,2504.79,6023.24
		z"/>
	<path class="st5" d="M1917.63,5792.58c11.38,17.6,16.91,37.87,23.6,57.22c28.87,83.54,86.65,141.35,160.87,184.8
		c63.86,37.38,132.95,58.85,206.49,67.83c74.72,9.13,149.65,14.07,224.72,11.08c77.65-3.1,155.33-7.5,231.21-27.67
		c50.57-13.44,95.32-38.35,139.46-64.95c19.63-11.83,39.32-23.67,56.18-39.59c48.98-46.26,77.02-104.89,98.91-167.09
		c5.4-15.34,9.12-31.27,14.97-46.54c-2.02,26.43-9.43,51.59-17.92,76.37c-14.05,41-32.54,79.84-59,114.51
		c-17.04,22.32-37.27,41.74-59.99,57.71c-40.34,28.35-79.69,58.58-126.56,76.36c-54.76,20.78-110.63,36.19-169.02,43.53
		c-77.71,9.76-155.7,9.48-233.42,6.29c-75.06-3.08-149.19-16.14-219.54-44.58c-48.68-19.68-93.68-46.03-134.38-79.27
		c-21.5-17.56-44.29-33.79-61.83-55.78c-28.64-35.92-46.28-77.55-61.26-120.33c-5.69-16.24-13.66-32.14-13.26-50.1L1917.63,5792.58z
		"/>
	<path class="st5" d="M1917.86,5792.4c-4.18-3.23-5.03-7.16-2.3-12.52c3,4.26,1.72,8.63,2.08,12.7
		C1917.63,5792.58,1917.86,5792.4,1917.86,5792.4z"/>
	<path class="st6" d="M2059.7,5851.09c-24-28.8-42.42-60.69-53.74-96.54c-1.88-38.96,15.35-60.01,56.06-64.14
		c33.92-3.45,68.19-3.27,102.19,0.45c72.66,7.94,145.39,13.32,218.54,15.42c48.68,1.4,97.35,4.23,146.05,3.25
		c83.48-1.68,166.68-8.73,249.91-15c39.54-2.98,79.02-7.38,118.81-5.7c17.52,0.74,34.74,3,51.28,8.77
		c26.59,9.27,34.71,22.85,31.28,50.71c-0.59,4.83-1.27,9.67-1.04,14.56c-10.89,31.28-29.5,58.03-49.34,84.06
		c-19.85,22.58-41.43,43.17-67.59,58.43c-65.86,38.42-136.38,61.82-212.36,71.32c-123.3,15.41-245.96,15.37-367.83-9.88
		c-79.57-16.49-153.26-46.37-212.49-104.87C2065.96,5858.49,2062.59,5855.04,2059.7,5851.09z"/>
	<path class="st2" d="M2979.06,5762.88c-5.71-6.7-3.39-14.78-2.94-22.08c1.12-18.36-8.57-28.71-24.17-34.73
		c-14.98-5.78-30.72-8.98-46.76-9.6c-45.27-1.77-90.23,2.06-135.22,6.87c-23.44,2.51-47.12,3.66-70.67,4.84
		c-34.7,1.75-69.47,3.78-104.07,6.13c-42.48,2.89-84.87,3.11-127.22,2.18c-70.88-1.56-141.75-4.52-212.54-8.36
		c-31.8-1.73-63.34-8.13-95.14-10.36c-35.32-2.47-71.01-5.69-106.1,1.38c-32.23,6.5-40.8,17.23-45.33,50.03
		c-0.26,1.89-1.92,3.58-2.92,5.37c-6.38-11.77-9.41-24.7-12-37.59c-5.33-26.59,2.06-38.86,27.83-47.26
		c26.8-8.74,54.3-10.6,82.39-8.76c42.38,2.77,84.28,9.31,126.39,14.19c73.38,8.5,147.14,9.06,220.88,9.1
		c67.48,0.04,134.99,0.62,202.42-1.3c61.17-1.74,121.99-9.08,182.6-17.7c34.59-4.92,69.28-5.14,104.04-2.29
		c0.69,0.06,1.39,0.11,2.08,0.2c44.92,5.67,59.12,26.75,46.93,70.33C2986.73,5743.47,2982.58,5753.08,2979.06,5762.88z"/>
	<path class="st7" d="M2059.7,5851.09c18.3,10.21,32.77,25.51,49.89,37.36c57.67,39.9,122.06,62.69,190.4,75.25
		c38.2,7.02,76.81,10.55,115.58,13.78c38.29,3.19,76.49,4.02,114.58,2.36c66.5-2.9,133.4-6.62,197.75-24.78
		c72.1-20.34,139.93-50.38,194.82-103.88c1.9-1.86,4.65-2.85,7-4.25c-13.08,24.47-33.04,43.11-54.72,59.09
		c-72,53.07-152.62,84.94-241.66,96.17c-59.63,7.52-119.37,10.68-179.21,6.96c-56.16-3.49-112.63-5.93-167.58-20.13
		c-62.04-16.03-118.82-43.82-171.55-79.56C2092.69,5894.33,2072.7,5875.69,2059.7,5851.09z"/>
</g>
<g>
	<polygon class="st8" points="3234.04,4746.71 3101.01,4808.69 3133.46,4847.78 3258.29,4816.74 	"/>
	<polyline class="st8" points="1934.99,4554.03 1468.25,4306.35 1155.72,3674.08 1061.03,3136.99 1195.51,2425.03 1516.38,2113.87 
		1759.59,1931.33 2049.65,1546.33 2214.76,1293.96 2311.27,996.66 2337.55,688.92 2315.03,399.94 2236.22,125.98 2337.55,201.03 
		2521.44,339.89 2754.12,546.3 3065.61,872.81 3354.59,1278.12 3551.81,1623.39 3654.82,2039.97 3677.34,2373.98 3677.34,2501.58 
		3692.35,2599.16 3816.2,2425.1 3868.75,2197.59 3868.75,2113.87 3981.33,2340 4093.92,2527.85 4120.19,2666.54 4150.21,2848.01 
		4176.48,3120.04 4138.95,3297.2 4093.92,3514.87 4033.87,3674.08 4010.35,3714.13 3940.05,3833.87 3842.15,4010.39 
		4037.62,3750.43 4097.01,3619.43 4146.56,3602.78 4215.07,3534.27 4322.3,3392.24 4392.19,3302.01 4398.88,3357.05 
		4383.84,3477.76 4335.38,3674.08 4273.56,3840.05 4218.41,3983.75 4026.26,4279.51 3765.59,4540.18 3474.84,4727.33 
		3287.7,4794.16 3160.7,4837.96 3199.16,4750.9 3238.27,4715.63 3393.53,4462.92 3483.03,4250.76 3511.95,3981.68 3438.28,3767.75 
		3353.49,3558.45 3207.46,3421.84 3007.25,3301.72 3021.38,3501.93 2938,3603.83 2839.56,3725.74 2642.99,3653.52 2573.94,3459.91 
		2534.65,3356.34 2672.79,3120.04 2899.37,2876.75 3133.46,2481.97 3176.05,2267.71 3184.72,2081.23 3159.24,1875.89 
		3114.26,1781.93 3020.77,1714.23 2788.05,1423.57 2697.67,1345.32 2762.9,1502.04 2792.33,1600.16 2802.15,1750.6 2783.75,1885.44 
		2759.71,1941.35 2749.82,2077.66 2695.34,2163.69 2110.2,2921.46 1863.49,3281.23 1791.54,3674.08 1820.98,3987.67 
		1981.23,4458.63 1934.99,4554.03 	"/>
	<path class="st9" d="M2047.63,1505.92c6.95,8.12-11.59,48.38,22.32,20.63c16.32-13.35,24.37-37.27,46.05-47.19
		c21.36,37.13-9.3,60.33-25.74,84.64c-97.2,143.7-212.61,273.22-323.42,406.12c-186.16,223.26-355.76,456.47-466.07,727.9
		c-51.97,127.86-71.89,263.21-91.03,398.75c-9.44,30.96-1.26,63.77-10.05,94.48c-3.42,11.97-6.62,28.32-24.81,25.55
		c-12.95-1.97-17.18-14.78-18.87-25.65c-8.41-54.09-2.54-108.67-4.32-162.92c-0.08-148.67,41.53-288.15,101.13-421.97
		c95.9-215.31,210.77-422.41,371.51-594.43c145.24-155.44,83.68-459.86-72.89-547.84c-34.25-19.25-83.35-29.67-93.66-80.25
		c12.89,1.7,26.77,0.92,38.48,5.58c31.97,12.71,19.53-8.39,17.85-21.76c207.29,105.95,265.44,282.71,234.4,510.41
		C1862.74,1757.33,1947.73,1625.53,2047.63,1505.92z"/>
	<path class="st9" d="M3184.72,4862.28c10.27-15.61,27.23-20.6,43.19-27.21c9.01-3.74,25.14-5.08,15.26-19.37
		c-4.39-6.36-19.63-5.22-29.94-7.49c1.41-41.88,38.9-38.25,63.41-47.31c426.11-157.58,739.69-438.85,938.67-847.85
		c24.72-50.82,30.13-110.79,72.46-153.27c29.04-13.56,29.04-13.56,34.54,7.98c-69.08,240.54-197.02,447.68-366.31,629.08
		c-205.94,220.67-459.27,367.88-744.25,462.78C3203.36,4862.4,3193.75,4861.47,3184.72,4862.28z"/>
	<path class="st9" d="M4322.3,3767.75c-8.31-15-17.41-4.07-26.28-0.79c-14.72-12.72-11.9-29.17-7.02-44.14
		c39.41-120.85,63.43-245.22,84.84-370.17c-1.44,24.34-15.83,43.15-29.15,61.58c-60.07,83.04-128.43,158.94-204.9,227.11
		c-17.5,15.6-34.65,38.25-64.54,29.08c0.94-19.78,7.83-37.01,21.85-51.07c122.33-91.69,205.01-204.41,324.37-431.6
		C4421.35,3386.31,4400.12,3581.52,4322.3,3767.75z"/>
	<path class="st10" d="M2979.46,4915.81c65.78-28.37,132.36-53.71,205.56-53.69C3119.74,4892.42,3051.11,4909.88,2979.46,4915.81z"
		/>
	<path class="st9" d="M2156.37,1325.61c-8.26,39.43-15.39,79.54-58.74,97.96C2115.54,1389.93,2128.3,1353.19,2156.37,1325.61z"/>
	<path class="st9" d="M2156.22,4784.94c-72.93-45.81-129.54-108.9-185.07-173.36c-18.85-21.88-40.35-41.48-60.65-62.12
		c-15.14-15.66-25.29-33.39-23.4-56.14c-265.38-427.67-292.33-1008.81,55.03-1489.37c84.22-116.51,171.87-229.88,272.62-332.7
		c19.38-9.08,30.65-6.11,27.42,18.43c-138.14,163.87-271.82,330.37-372.27,521.72c-263.47,501.87-121.91,1197.31,319.42,1524.71
		c5.34,3.96,9.16,9.95,13.71,15C2189.61,4765.38,2131.64,4718.04,2156.22,4784.94z"/>
	<path class="st9" d="M2242.18,2689.68c-4.82-12.58-14.68-17.65-27.42-18.43c112.58-124.86,227.09-248.04,337.14-375.09
		c90.87-104.91,178.02-213.61,207.81-354.81c50.74-240.48-5.73-458.6-138.99-660.46c-5.77-8.74-11.95-17.19-28.86-41.42
		c84.91,44.01,140.21,96.99,197.66,145.86c114.82,97.67,217,207.39,298.39,335.08c11.97,18.77,26.86,37.06,26.34,61.52
		c-28.02-19.71-37.56-53.27-58.54-78.08c-17.35-20.52-18.36-0.79-21.69,10.85c-93.93-122.63-186.46-246.52-307.1-345.43
		c-8.73-7.16-17.47-14.31-29.26-23.95c-1.26,9.15-4.54,16.01-2.44,20.1c182.2,354.42,138.61,678.23-130.74,971.89
		C2456.89,2454.62,2349.61,2572.22,2242.18,2689.68z"/>
	<path class="st10" d="M3199.33,2009.35c30.99,102.88,32.26,205.77,0.14,308.69C3199.41,2215.15,3199.37,2112.25,3199.33,2009.35z"
		/>
	<path class="st10" d="M3142.43,2317.91c21.31-110.65,19.38-221.52,3.31-332.55C3188.06,2096.63,3185.23,2207.47,3142.43,2317.91z"
		/>
	<path class="st10" d="M3171.13,4779.42c-3.95,14.21-23.48,19.87-20.85,38.17c20.93-3.08,41.68-6.13,62.43-9.18
		c-7.06,5.4-13.45,12.21-21.3,15.93c-22.48,10.67-55.15,24.68-65.83-0.64C3114.36,4797.09,3145.18,4784.06,3171.13,4779.42z"/>
	<path class="st9" d="M1887.11,4493.32c15.29,15.59,22.84,34.4,23.39,56.13c-236.21-137.63-410.31-335.21-542.66-570.7
		c-158.38-281.8-225.38-585.96-209.96-908.54c0.97-20.31-1.84-41.27,11.5-59.15c-0.01,63.38-0.01,126.76-0.01,210.21
		c27.39-57.02,0.33-102.33,26.93-138.26c-7.45,241.22,22.94,476.19,113.01,701.85c110.67,277.29,285.21,506.09,520.98,688.33
		C1845.37,4484.85,1859.24,4512.67,1887.11,4493.32z"/>
	<polygon class="st9" points="1887.11,4493.32 1781.36,4208.68 1718.13,3874.97 1718.13,3658.74 1750.58,3480.98 1834.05,3217.12 
		2009.69,2936.4 2292.39,2607.34 2551.89,2296.16 2657.77,2163.69 2740.28,2009.35 2783.75,1885.44 2783.75,1666.04 
		2722.68,1439.85 2648.04,1293.96 2694.41,1319.97 2742.58,1363.22 2824.47,1440.98 2930.44,1543.65 3024.64,1669.43 
		3093.63,1833.42 3159.24,1996.27 3194.5,2113.87 3176.05,2267.71 3054.36,2625.73 2799.98,3011.06 2672.79,3120.04 
		2597.41,3235.77 2507.91,3407.71 2531.46,3574.94 2664.52,3737.46 2792.91,3750.43 2967.21,3658.17 3021.38,3501.93 
		3007.25,3301.72 3077.91,3325.27 3207.46,3421.84 3353.49,3558.45 3438.28,3767.75 3483.03,4133.17 3393.53,4462.92 
		3157.99,4759.69 2927.17,4872.53 2548.31,4915.81 2110.2,4736.14 	"/>
	<g>
		<path d="M2606.34,824.07c15.67,30.79,34.78,59.57,52.53,89.13c84.67,141.02,169.74,281.81,254.56,422.74
			c128.06,212.75,255.99,425.59,384.06,638.33c115.54,191.92,231.19,383.78,346.83,575.65c72.91,120.97,145.89,241.9,218.83,362.86
			c8.2,13.6,8.27,13.76-5.75,22.05c-130.01,76.89-260.07,153.69-390.08,230.58c-143.95,85.13-287.9,170.26-431.8,255.47
			c-130.87,77.5-261.69,155.1-392.53,232.65c-9.99,5.92-20.28,11.4-29.97,17.77c-6.26,4.12-11.18,3.37-17.35-0.29
			c-123.19-73.2-246.47-146.26-369.77-219.28c-146.62-86.83-293.27-173.62-439.93-260.4c-139.38-82.47-278.79-164.9-418.2-247.34
			c-6.67-3.94-13.22-8.14-20.13-11.59c-7.79-3.88-8.64-8.04-3.98-15.66c29.24-47.77,58.03-95.8,86.92-143.78
			c79.2-131.58,158.33-263.2,237.56-394.75c97.77-162.33,195.64-324.59,293.4-486.92c82.5-136.99,164.84-274.07,247.38-411.03
			c86.89-144.2,173.97-288.3,260.88-432.49c44.91-74.5,89.62-149.12,134.43-223.69C2604.93,824.07,2605.64,824.07,2606.34,824.07z
			 M2640.94,1014.98c-0.94,0.25-1.87,0.5-2.81,0.76c0,4.5,0,9,0,13.5c0.01,176.17,0.01,352.35,0.02,528.52
			c0.01,257.92,0.13,515.84-0.27,773.75c-0.02,12.71,4.2,18.96,15.42,23.62c22.09,9.17,43.71,19.5,65.5,29.4
			c105.77,48.02,211.54,96.02,317.28,144.1c96.13,43.71,192.19,87.57,288.32,131.28c135.22,61.47,270.48,122.87,405.74,184.27
			c3.96,1.8,7.79,4.36,14.3,3.74C3376.13,2236.15,3008.54,1625.57,2640.94,1014.98z M2568.5,1014.31
			c-368.64,612.23-736.48,1223.14-1104.33,1834.05c25.68-8.96,49.38-19.61,73.02-30.4c74.93-34.19,149.8-68.52,224.76-102.62
			c104.12-47.37,208.33-94.55,312.47-141.87c73.06-33.2,146.06-66.53,219.12-99.73c87.8-39.89,175.57-79.85,263.55-119.36
			c10.21-4.59,13.55-10.55,13.54-21.66c-0.26-435.13-0.2-870.25-0.23-1305.38C2570.4,1023.59,2571.34,1019.67,2568.5,1014.31z
			 M2638.2,2999c0.03,0,0.06,0,0.09,0c0,188.15-0.01,376.3,0.05,564.45c0,3.43-1.59,8,1.31,10.02c3.25,2.27,6.41-1.64,9.28-3.32
			c86.12-50.79,172.21-101.63,258.25-152.54c180.58-106.85,361.13-213.75,541.7-320.62c93.92-55.58,187.86-111.13,281.76-166.75
			c2.65-1.57,7.11-2.46,7.19-5.58c0.12-4.15-4.84-4.45-7.82-5.82c-37.77-17.27-75.62-34.38-113.44-51.54
			c-94.88-43.05-189.79-86.04-284.62-129.18c-90.99-41.39-181.89-82.99-272.88-124.4c-96.75-44.03-193.56-87.93-290.33-131.92
			c-40.05-18.21-80.11-36.4-120.06-54.83c-7.62-3.52-11.32-2.69-10.5,6.54c0.19,2.1,0.02,4.23,0.02,6.34
			C2638.2,2626.22,2638.2,2812.61,2638.2,2999z M1468.25,2923.8c3.23,2.26,4.56,3.34,6.02,4.2c75.48,44.57,151,89.06,226.44,133.69
			c163.01,96.44,325.97,192.96,488.97,289.42c123.91,73.32,247.9,146.53,371.71,220.02c8.21,4.87,9.49,2.25,8.95-5.47
			c-0.19-2.81-0.03-5.64-0.03-8.45c0.02-356.56,0.05-713.13,0.07-1069.69c0-17.97-0.28-35.94,0.11-53.9
			c0.2-9.07-2.79-10.18-10.56-6.63c-70.1,32.04-140.33,63.83-210.47,95.79c-83.92,38.24-167.75,76.67-251.69,114.86
			c-95.79,43.59-191.65,87.01-287.48,130.51c-80.77,36.66-161.54,73.3-242.29,110.01
			C1535.38,2892.98,1502.83,2907.97,1468.25,2923.8z"/>
		<path d="M2602.12,4883.79c-14.64-21.1-29.1-42.32-43.93-63.28c-93.21-131.67-186.5-263.29-279.77-394.92
			c-108.54-153.18-217.12-306.34-325.62-459.56c-97.51-137.69-194.89-275.47-292.41-413.15
			c-87.74-123.88-175.61-247.67-263.4-371.52c-9.95-14.04-19.73-28.22-28.34-44.38c4.54,2.52,9.15,4.92,13.62,7.56
			c141.8,83.94,283.55,167.98,425.39,251.85c117.3,69.35,234.76,138.42,352.05,207.79c130.92,77.44,261.72,155.09,392.59,232.64
			c13.93,8.26,28.06,16.2,41.81,24.74c6.78,4.22,12.23,4.1,19.31-0.11c92.9-55.26,185.97-110.25,279.06-165.19
			c182.55-107.73,365.18-215.33,547.72-323.09c126.44-74.64,252.78-149.47,379.18-224.17c6.6-3.9,13.4-7.47,20.11-11.2
			c0.88,0.79,1.77,1.58,2.65,2.37c-412.64,581.2-825.28,1162.41-1237.92,1743.61C2603.52,4883.79,2602.82,4883.79,2602.12,4883.79z
			 M3604.3,3358.48c-0.58-0.48-1.17-0.95-1.75-1.43c-18.78,11.04-37.58,22.06-56.34,33.14
			c-225.82,133.4-451.65,266.78-677.46,400.21c-73.05,43.16-145.93,86.59-219.15,129.46c-8,4.68-11.42,9.43-11.41,18.9
			c0.25,255.8,0.21,511.6,0.3,767.39c0,3.17-1.55,6.92,2.4,10.2C2962.14,4263.57,3283.22,3811.03,3604.3,3358.48z M2567.91,4715.63
			c0.79-0.27,1.58-0.54,2.37-0.81c0-4.54,0-9.09,0-13.63c0.01-250.53-0.17-501.05,0.43-751.58c0.04-17.33-4.97-26.43-20.24-35.37
			c-152.81-89.49-305-180.04-457.39-270.26c-143-84.66-286.02-169.28-429.05-253.88c-19.21-11.36-38.54-22.51-57.81-33.76
			c-0.42,0.5-0.84,1.01-1.26,1.51C1925.94,3810.44,2246.92,4263.04,2567.91,4715.63z"/>
	</g>
	<path class="st9" d="M2979.46,4915.81c-148.71,49.95-298.74,58.32-456.24,44.46c-211.32-18.59-420.57-42.46-625.12-98.36
		c-382.5-104.52-719.25-282.8-964.98-605.95c-110.51-145.33-212.46-365.85-264.54-583.55c120.3,112.56,220.08,235.99,366.8,305.64
		c-34.64-46.05-70.39-91.31-103.71-138.29c-129.25-182.2-208.6-383.94-220.52-607.59c-9.9-185.94,48.26-358.55,122.51-526.39
		c102.81-232.4,249.52-439.14,380.83-654.92c54.45-89.48,105.15-181,140.31-280.43c46.18-130.61,50.88-261.84,13.6-395.35
		c-5.02-17.97-21.82-42.01-4.5-56.49c15.28-12.78,39.15-1,58.33,5.86c31.96,11.44,65.04,20.65,91.87,43.1
		c16.8,16.83,25.03,32.17-8.17,37.77c-12.34,2.08-25.57-3.43-37.16,4.28c-18.93,20.36-8.53,43.99-6.03,65.55
		c23.65,203.91-37.37,387.28-134.73,562.01c-119.79,214.98-263.2,416.51-365.8,641.26c-57.86,126.76-108.36,255.72-130.04,394.76
		c-32.75,210.01,18.3,403.79,117.75,585.33c96.07,175.36,219.23,330.14,382.79,449.59c26.71,19.5,69.35,42.73,54.86,77.37
		c-16.12,38.54-63.52,22.45-98.77,19.03c-146.41-14.21-267.25-84.7-377.13-168.5c177.37,400.06,675.81,712.08,1308.25,814.31
		c-32.49-14.29-60.01-32.04-76.64-62.94c-23.86-65.03,20.34-54.21,57.36-51.61c27.83,4.71,49.81,21.48,73.45,35.22
		c314.95,183.1,688.53,150.86,939.86-160.14c176.25-218.1,250.79-463.36,197.33-740.74c-38.65-200.49-164.02-344.61-325.27-473.61
		c-9.61,46.19-4.68,84.51-5.63,122.24c-4.94,197.5-183.3,330.23-373.76,277.7c-194.59-53.66-301.52-240.54-251.23-436.19
		c37.91-147.5,135.5-255.6,233.56-364.47c122.23-135.71,236.88-277.37,331.09-434.7c48.53-81.04,73.86-171.49,109.8-257.66
		c33-102.24,33.91-204.62,2.08-307.18c-25.38-98.55-82.32-184.73-111.14-282.01c6.57-35.96,24.97-40.11,49.31-15.8
		c23.58,23.55,38.79,53.81,58.51,80.56c41.45,78.13,68.16,161.5,87.85,247.45c3.24,91.09,0.91,182.16,1.62,273.14
		c-10.41,142.85-70.54,267.65-144.47,386.52c-102.69,165.1-227.34,313.45-355.82,458.78c-79.72,90.17-147.84,186.26-143.82,315.04
		c1.39,44.37,11.96,85.59,38.69,121.83c58.14,78.81,155.74,113.21,234.32,82.54c74.29-29,122.89-122.62,110.26-222.91
		c-9.39-74.56-25.14-148.28-48.4-220.15c-5.52-17.06-12.96-37.67,1.74-52.01c18.08-17.64,39.21-4.71,56.71,4.35
		c284.27,147.2,497.44,357.31,565.08,680.54c39.97,191.01,19.04,381.11-69.1,559.59c-34.82,24.04-17.9,61.78-24.36,93.38
		c-73.55,106.79-155.86,205.63-259.58,284.98c-7.25,6.55-24.91,5.54-20.17,19.66c2.18,6.51,15.78,0.14,23.82-2.84
		c8.16-3.02,16-6.84,24.29-9.81c6.48-2.1,13.07-3.19,19.88-3.41c14.36,1.27,28.02,5.5,31.16,21.09c3.53,17.55-9.72,21.2-23.64,25.89
		c-16.85,5.68-34.52,10.04-49.93,19.65l0.31-0.16C3116.17,4878.76,3048.1,4898.36,2979.46,4915.81z"/>
	<path class="st9" d="M2156.37,1325.61c112.89-212.86,153.23-440.48,139.66-679.47c-11.19-197.06-55.53-386.69-124.07-571.19
		c-3.76-10.13-7.07-20.44-14.02-40.64c69.94,28,120.36,69.12,172.64,106.32c427.63,304.28,800.62,662.09,1079.05,1110.97
		c203.11,327.45,325.48,680.37,326.57,1069.76c0.11,40.19-9.87,80.36,0.89,130.65c87.34-154.1,66.71-306.95,36.58-465.09
		c75.91,52.59,135.57,119.17,186.52,192.15c299.93,429.64,339.81,890.29,159.38,1376.02c-7.91,21.3-15.04,42.89-22.54,64.34
		c5.76,23.11-5.5,42.93-12.11,63.73c-69.79,148.58-160.32,284.59-253.58,418.95c-17.01,24.5-36.97,45.96-61.7,62.87
		c-5.68,3.7-11.04,7.88-16.84,11.27c-14.86,8.69-30.63,26.67-47.6,10.98c-16.12-14.9-2.48-33.46,4.67-49.62
		c3.65-8.25,5.8-17.04,9.47-25.28c78.38-128.29,165.76-250.69,233.33-386.12c107.73-215.95,176.08-444.23,180.26-683.04
		c4.54-259.2-62.15-506.09-209.99-725.32c-2.75-4.07-6.92-5.76-16.84-5.96c-14.83,33.11-18.67,71.73-30.86,107.5
		c-53.11,155.76-138.8,291.98-246.82,415.01c-6.03,6.87-12.08,13.87-19.32,19.35c-15.91,12.05-32.36,32.49-53.44,18.42
		c-16.78-11.2-9.49-33.62-5.8-51.15c13.61-64.75,32.46-128.27,44.66-193.39c75.91-405.38,7.04-789.04-176.36-1154.31
		c-193.34-385.09-471.37-702.73-791.54-986.81c-100.65-89.31-205.06-173.29-312.54-254.36c101.06,444.25,110.05,871.43-185.9,1253.9
		c-14.85,16.28-29.03,33.17-44.23,49.06c-8.86,9.27-20.72,20.36-34.26,11.23c-16.34-11.02-10.92-26.39-2.01-40.41
		c16.66-27.45,33.32-54.9,49.98-82.34C2129.08,1398.05,2136.08,1357.85,2156.37,1325.61z"/>
	<polygon class="st9" points="1430.92,1367.56 1622.11,1491.59 1713,1673.37 1725.54,1911.58 1637.32,2055.75 1443.45,2318.04 
		1220.92,2861.26 1183.45,3124.55 1183.45,3378.42 1263.76,3710.59 1400.7,4013.52 1537.65,4211.67 1714.01,4392.19 
		1857.18,4505.27 1934.99,4554.03 2162.19,4773.97 2206.8,4815.47 2253.49,4872.53 2166.34,4872.53 2057.41,4853.85 
		1654.88,4731.43 1108.14,4402.56 887.17,4076.81 898.58,3952.31 1094.66,4058.13 1116.44,4066.43 1052.12,3874.5 825.96,3456.41 
		779.27,3083.93 1038.93,2402.15 1216.12,2193.15 1283.72,2009.35 1370.6,1866.02 1411.16,1702.45 	"/>
	<path class="st11" d="M2075.25,3048.28c13.41-0.01,18.78,4.12,20.33,17.1c4.39,36.73,14.05,72.24,28.05,106.43
		c68.75,167.81,191.18,276.32,367.99,315.18c178.69,39.27,337.13-8.3,469.27-135.27c79.25-76.15,127.41-170,145.45-278.79
		c4.04-24.36,4.1-24.34,29.32-24.34c387.61,0,699.68-9.35,1087.27-5.71c7.29,0.07,1.54-2.62,4.09-1.34
		c0.77-30.2,1.27-37.56,0.77-67.86c-0.29-1.93,0.35-20.79,0-22.71c-1.23-6.77-0.23-16.56-1.32-23.5c-2,0.07-2.34,0.01-5.13,0.01
		c-388.53,0-701.49,5.36-1090.01,5.36c-2.33,0-6.74,0.17-9.08,0.2c-8.33,0.12-11.15-4.19-12.33-13.14
		c-8.74-66.66-30.03-129.12-62.92-187.91c-122.37-218.71-394.73-318.56-627.64-225.56c-184.77,73.78-292.77,212.25-325.37,408.49
		c-2.45,14.73-7.48,18.23-21.73,18.22c-382.78-0.39-765.57-0.32-1148.35-0.29c-19.64,0-156.43,3.42-176.06,3.55l-7.98,29.65
		l-5.54,22.97l-6.98,29.35l-5.36,32.16c5.26,0.15,153.53-1.96,158.8-1.96C1278.94,3048.58,1677.1,3048.65,2075.25,3048.28z
		 M2602.87,2557.01c237.73,1.72,428.59,194.39,427.35,431.39c-1.24,238.22-193.78,428.69-432.31,427.68
		c-234.5-0.99-426.53-195.41-425.25-430.54C2173.94,2747.7,2367.1,2555.3,2602.87,2557.01z"/>
	<path class="st11" d="M743.4,2956.7"/>
	<circle cx="2605.4" cy="2986.55" r="466.91"/>
	<text transform="matrix(0.5445 0 0 1 2164.3613 3153.0605)" class="st8 st12 st13">1559</text>
	<text transform="matrix(0.5588 0 0 1 2164.3613 3129.0547)" class="st9 st12 st14">1559</text>
	<text transform="matrix(0.8406 0 0 1 2260.2842 2246.3833)" class="st12 st15">EIP</text>
	<text transform="matrix(0.87 0 0 1 2256.5103 2228.9814)" class="st11 st12 st16">EIP</text>
</g>
</svg>
