<?xml version="1.0" encoding="utf-8"?>
<!-- Generator: Adobe Illustrator 26.0.0, SVG Export Plug-In . SVG Version: 6.00 Build 0)  -->
<svg version="1.1" id="Layer_1" xmlns="http://www.w3.org/2000/svg" xmlns:xlink="http://www.w3.org/1999/xlink" x="0px" y="0px"
	 viewBox="0 0 5000 5000" style="enable-background:new 0 0 5000 5000;" xml:space="preserve">
<style type="text/css">
	.st0{fill:#E6E7E9;}
	.st1{fill:#0C0C0C;}
	.st2{fill:#F2F2F2;}
	.st3{fill:#B0B0B1;}
	.st4{fill:#191A1B;}
	.st5{fill:#B0B1B1;}
	.st6{fill:#AFAFB0;}
	.st7{fill:#7F7F7F;}
	.st8{fill:#F78F29;}
	.st9{fill:#DE412A;}
	.st10{fill:#E85B29;}
	.st11{fill:#EAE7D5;}
	.st12{font-family:'Copperplate';}
	.st13{font-size:304.5416px;}
	.st14{font-size:292.1831px;}
	.st15{font-size:237.7186px;}
	.st16{font-size:226.0538px;}
</style>
<path class="st0" d="M5569.63,5616.33c-0.97,2.46-3.05,2-4.84,1.62c-1.52-0.32-3.27-1.16-2.57-3.2c0.77-2.22,2.8-2.47,4.75-1.88
	C5568.52,5613.35,5569.78,5614.37,5569.63,5616.33z"/>
<g>
	<path class="st1" d="M3701.59,1896.36c-0.32,9.4-0.64,18.81-0.96,28.21c-4.64,18.26,1.25,37.13-3.19,55.41
		c-0.42,9.7-1.19,19.4-1.19,29.11c0,195.88,0.09,391.76,0.2,587.64c0,4.84,0.49,9.68,0.75,14.53c-0.35,6.93-1,13.86-1,20.8
		c0.4,677.26,0.88,1354.53,1.15,2031.79c0.01,31.77,2.19,62.34,20.43,90.09c8.96,13.63,4.23,28.18-3.32,41.56
		c-13.55,24.02-34.71,39.59-58.37,52.19c-21.62,11.51-44.83,19.07-68.45,25.16c-76.41,19.72-153.93,31.43-232.9,35.2
		c-290.95,13.89-582.12,18.22-873.33,19.57c-190.9,0.88-381.76-4.33-572.58-9.71c-90.5-2.55-180.98-6.83-271.38-11.99
		c-75.81-4.33-151.33-12.11-224.8-33.08c-34.31-9.8-67.47-22.07-96.31-43.95c-8.95-6.79-16.96-14.33-23.69-23.36
		c-13.35-17.89-16.33-35.97-4.42-56.23c14.61-24.85,17.26-52.73,16.56-80.83c-2.12-85.69-0.92-171.39-0.9-257.08
		c0.21-798.5,0.62-1597.01,0.93-2395.51c0-12.48,0.71-25.05-2.72-37.29c-0.94-27.13-1.69-54.26-2.87-81.38
		c-1.02-23.48-9.88-44.53-20.52-64.71c-7.56-0.68-7.95,5.59-9.78,9.45c-12.54,26.43-26.46,52.11-40.72,77.64
		c-33.95,60.76-76.99,114.05-128.64,160.72c-25.4,22.95-45.56,50.75-65.99,78.11c-5.05,6.76-6.83,15.13-9.74,22.96
		c-12.26,33-40.81,47.24-75.31,38.37c-8.17-2.1-15.88-4.98-23.27-8.99c-202.37-110.16-405.56-218.81-606.92-330.84
		c-7.9-4.4-15.84-8.82-23.29-13.93c-34.99-24-43.5-59.19-23-96.48c28.52-51.85,57.54-103.42,86.13-155.23
		c8.03-14.55,17.53-28.34,23.19-44.14l0.05-0.12c6.55-26.93,21.61-49.27,38.17-70.8c17.13-29.93,33.84-60.11,51.48-89.74
		c43.93-73.77,85.26-149.03,128.21-223.35c86.7-150.03,174.23-299.59,266.97-446c32.1-50.68,68.84-97.76,113.06-138.94
		c48.45-45.12,104.1-75.96,168.03-92.86c45.73-12.09,91.45-24.15,137.59-34.64c73.49-16.71,143.71-43.66,213.74-70.67
		c146.87-56.65,287.9-126.18,428.05-197.51c12.39-6.31,25.06-12.47,36.37-20.44c52.31-36.86,110.57-47.38,172.84-39.87
		c47.06,5.67,94.36,7.82,141.6,10.43c121.72,6.74,243.53,10.25,365.42,4.84c80.68-3.58,161.38-7.05,241.82-14.75
		c28.64-2.74,57.01-0.84,84.83,7.17c10.07,2.9,19.71,6.67,28.99,11.55c147.84,77.59,297.42,151.74,451.6,215.87
		c91.16,37.92,184.75,69.85,279.97,96.37c32.8,9.14,66.23,16.07,99.46,23.62c83.93,19.05,155.02,60.36,214.06,122.77
		c2.34,2.48,5.11,4.55,7.68,6.81c119.92,151.94,212.63,320.99,307.73,488.57c118.46,208.76,237.47,417.2,356.17,625.82
		c7.2,12.66,14.06,25.36,18.54,39.53c10.95,34.58-7.6,71.47-34.14,86.42c-21.82,12.29-43.75,24.37-65.75,36.34
		c-183.33,99.72-366.7,199.38-550.01,299.13c-12.86,7-25.74,13.81-40.04,17.43c-8.37,2.12-16.74,2.37-25.08-0.16
		c-17.45-1.29-30.31-10.85-36.15-26.21c-18.4-48.41-52.95-84.36-89.39-118.76c-34.64-32.7-66.06-68.57-92.67-107.47
		c-25.54-37.34-47.77-77.42-66.3-119.17c-2.78-6.26-3.41-17.63-12.22-16.93c-7.93,0.63-7.18,11.64-10.36,18.03
		c-4.03,8.08-7.73,16.17-7.19,25.5C3701.91,1883.83,3704.71,1890.57,3701.59,1896.36z"/>
	<path class="st2" d="M3910.58,1056.61c-2.46,39.81-12.37,78.32-21.07,116.97c-14.35,63.77-25,128.45-45.86,190.65
		c-19.71,58.77-43.33,115.77-71.76,171.03c-50.64,98.41-85.91,202-100.53,312.33c-5.23,39.45-8.87,78.7-8.84,118.54
		c0.69,899.47,1.11,1798.95,1.44,2698.42c0.01,35.25,2.5,69.72,22.16,100.41c3.83,5.98,1.72,10.31-1.31,15.24
		c-9.4,15.3-22.9,26-38.31,34.6c-35.12,19.58-73.73,28.65-112.49,37.24c-75.11,16.65-151.46,22-228.07,25.12
		c-176.1,7.16-352.29,10.23-528.48,14.08c-260.57,5.7-521.02,1.91-781.5-4.71c-92.62-2.35-185.22-5.21-277.74-9.67
		c-83.42-4.02-166.99-7.62-249.24-24.26c-36.95-7.48-73.13-17.29-106.97-34.33c-15.63-7.87-30.13-17.38-41.49-31.1
		c-5.81-7.01-7.91-13.19-2.85-22.43c18.33-33.44,21.45-70.11,20.45-107.41c-0.32-11.83-0.99-23.66-0.99-35.49
		c0.09-723.2,0.21-1446.4,0.4-2169.61c0.04-152.58-0.79-305.18,1.02-457.74c0.85-71.61-9.12-141.37-21.92-211.39
		c-12.55-68.63-38.38-132-68.75-194.04c-44.44-90.77-83.19-183.69-108.18-281.98c-20.08-78.97-36.87-158.58-50.38-238.92
		c-1-5.95,2.15-16.74-8.2-16.21c-11.28,0.58-4.59,10.73-5.42,16.6c-0.77,5.45-0.03,11.11,0.05,16.68
		c1.83,133.95,14.91,266.66,43.63,397.65c4.93,22.48,8.21,45.22,11.93,67.9c1.36,8.27,1.42,16.66,0.39,25
		c-1.17,9.51-4.81,17.64-14.2,21.53c-9.88,4.1-17.87-0.68-24.46-7.26c-23.51-23.47-42.21-50.65-52.21-82.19
		c-12.82-40.44-22.6-81.83-19.23-125.63c-1.21,32.12-2.43,63.51-0.8,95.11c3.4,65.77,29.85,122.14,66.08,175.52
		c23.82,35.1,45.87,71.22,58.9,112.45c13.99,44.27,13.79,87.37-1.04,131.16c-21.24,62.72-56.35,117.94-92.32,172.65
		c-6.05,9.2-12.14,18.59-18.94,27.38c-15.92,23.6-32.72,46.48-41.5,74.35c-5.25,16.67-18.23,21.91-35.07,17.3
		c-5.96-1.63-11.71-4.46-17.18-7.44c-202.32-110.06-405.42-218.69-606.71-330.63c-6.69-3.72-13.49-7.32-19.75-11.69
		c-20.37-14.22-24.47-30.36-12.51-52.21c22.37-40.91,45.29-81.52,67.94-122.27c154.14-277.41,309.65-554.03,474.86-825.07
		c36.97-60.66,73.7-121.47,121.03-174.97c28.32-32.01,60.14-60.15,95.58-83.8c31.61-21.1,68.07-31.47,104.1-42.12
		c40.03-11.83,80.51-22.03,121.31-30.85c76.45-16.54,149.26-44.37,222.07-71.98c126.33-47.9,247.7-106.95,368.72-166.68
		c43.06-21.25,85.7-43.19,126.6-68.51c32.53-20.14,68.96-25.59,106.49-23.03c50.7,3.46,101.28,8.35,152.04,11.21
		c135.7,7.63,271.41,11.26,407.24,4.64c74.42-3.63,148.84-7.19,223.09-13.88c37.51-3.38,72.01,3.91,105.88,23.34
		c47.58,27.3,97.98,49.7,147.38,73.78c85.66,41.76,170.69,85.04,258.76,121.44c111.23,45.97,224.45,86.75,341.19,116.86
		c25.59,6.6,51.45,12.14,77.2,18.08c91.12,21.03,164.37,69.9,222.22,142.7c38.18,48.05,71.68,99.34,104.6,151.04
		c79.31,124.53,149.92,254.12,222.86,382.36c105.63,185.71,211.34,371.38,316.97,557.09c4.12,7.24,8.41,14.52,11.36,22.26
		c7.88,20.69,2.67,38.39-14.92,51.81c-4.94,3.77-10.57,6.71-16.06,9.69c-202.92,110.4-405.86,220.76-608.81,331.11
		c-4.28,2.33-8.53,4.78-13.04,6.59c-19.75,7.94-32.11,2.9-39.36-17.17c-9.12-25.27-26.75-45.45-39.5-68.52
		c-41.04-58.1-77.24-118.84-106.09-184.12c-32.1-72.63-21.71-141.14,15.54-207.94c19.66-35.27,41.81-69.08,63.31-103.23
		c26.98-42.86,35.02-90.43,37.1-139.55c1.11-26.27,0.58-52.63,0.63-74.17c1.57,27.58-5.87,58.82-12.49,90.12
		c-8.44,39.87-27.72,74.1-56.29,103.01c-7.76,7.86-16.3,17.18-28.88,11.63c-13.47-5.95-16.07-19.08-14.7-31.91
		c3.86-36.01,10.94-71.52,18.6-106.91c19.61-90.67,29.71-182.56,34.88-275.07c2.25-40.16,0.48-80.46,4.46-120.57
		c0.44-4.47,1.74-10.42-4.75-12.21C3915.02,1049.09,3912.29,1052.41,3910.58,1056.61z"/>
	<path class="st3" d="M3910.58,1056.61c-1.18-6.24,1.8-9.35,7.76-9.38c6.2-0.03,8.32,4.14,8.34,9.67c0.06,11.83-0.56,23.7,0.11,35.5
		c4.17,73.04-2.88,145.3-11.24,217.82c-7.57,65.67-19.41,130.32-32.94,194.84c-3.84,18.32-6.47,36.9-9.41,55.4
		c-0.65,4.08-0.58,8.37-0.23,12.5c0.72,8.52,2.43,17.51,11.17,20.87c8.8,3.38,13.77-4.76,19.03-9.95
		c33.84-33.41,53.48-74.16,60.92-120.81c3.38-21.21,8.54-42.16,9.38-63.8c0.28-7.29,2.97-14.49,5.66-21.57
		c8.67,39.97,8.34,79.89,3.49,120.13c-3.76,31.22-8.39,62.19-23.48,90.14c-12.21,22.62-26.18,44.29-39.53,66.29
		c-11.19,18.43-22.57,36.74-33.92,55.07c-22.07,35.62-33.88,75.08-36.92,116.15c-2.21,29.88,8.47,58.77,19.09,86.87
		c19.09,50.49,49.06,95.05,75.82,141.4c8.93,15.47,21.29,29.29,24.9,47.59c-26.35-21.98-46.28-49.79-68.21-75.73
		c-13.92-16.46-26.69-33.92-39.71-51.12c-29.21-38.61-44.16-83.36-54.67-129.81c-15.92-70.4-20.34-141.83-16.76-213.76
		c1.57-31.43,8.62-61.99,18.68-91.79c13.13-38.89,26.21-77.8,39.87-116.5c30.46-86.36,47.77-175.77,62.05-265.88
		c3.92-24.74,7.28-49.57,10.67-74.39c1.03-7.57,1.35-15.23,1.93-22.86c0.26-3.47,0.58-7.64-3.72-8.44
		C3914.99,1050.39,3912.66,1053.78,3910.58,1056.61z"/>
	<path class="st3" d="M1033.49,2096.54c8.18-24.73,24.52-44.97,37.2-67.21c24.1-42.29,50.71-83.21,66.02-129.99
		c5.86-17.9,9.94-36.21,13.28-54.63c2.1-11.56,0.98-23.46-0.76-35.31c-7.43-50.78-30.01-95.04-57.43-137.43
		c-13.98-21.61-27.13-43.76-40.83-65.55c-20.86-33.16-29.56-69.9-34.29-108.34c-2.99-24.29-4.79-48.51-3.45-72.8
		c1.02-18.41,2.54-37.03,10.13-54.66c0.7,40.96,9.42,80.49,18.79,119.84c8.95,37.59,29.95,68.53,56.35,96.07
		c4.29,4.48,8.91,10.07,15.98,7.58c8.12-2.85,10.64-9.88,11.4-18.21c1.62-17.65-2.45-34.72-5.38-51.73
		c-7.64-44.44-19.41-88.12-25.71-132.82c-4.07-28.85-7.47-57.8-10.92-86.74c-3.87-32.38-8.28-64.73-10.97-97.21
		c-3.22-38.89-2.18-77.91-0.22-116.87c0.09-1.8,2.02-3.51,3.09-5.27c6.9,22.7,8.38,46.38,11.85,69.63
		c15.64,104.88,40.97,207.32,75.47,307.53c4.52,13.14,9.34,26.24,15.08,38.88c32.3,71.13,36.98,146.66,33.48,222.83
		c-2.33,50.75-13.73,100.51-25.2,150.04c-5.88,25.39-15.77,48.92-29.4,70.98c-23.83,38.57-49.8,75.47-81.99,107.72
		C1060.85,2067.09,1047.32,2081.96,1033.49,2096.54z"/>
	<path class="st4" d="M2511.31,617.84c-77.91-2.95-156.01-5.05-231.91-25.6c-59.66-16.15-114.17-43.94-165.26-78.31
		c-24.5-16.48-44.08-38.38-61.08-62.37c-28.75-40.58-52.8-83.47-63.65-132.72c-2.59-11.75-2.41-23.37-1.94-35.25
		c0.89-22.6,12.8-35.86,33.47-42.66c29.44-9.68,59.37-13.79,90.5-11.29c45.16,3.63,89.86,10.74,134.81,15.92
		c40.86,4.71,81.9,7.08,122.96,7.59c89.84,1.11,179.69,2.85,269.53,0.09c66.89-2.05,133.44-7.95,199.55-18.38
		c36.68-5.78,73.42-7.13,110.32-2.61c2.76,0.34,5.57,0.46,8.29,1.03c39.9,8.42,66.33,29.1,54.01,81.76
		c-21.96,93.83-73.76,168.8-157.27,219.72c-75.07,45.77-156.71,70.98-244.25,78.11C2576.74,615.52,2544.11,617.67,2511.31,617.84z"
		/>
	<path class="st5" d="M1924.16,387.17c11.38,17.6,16.91,37.87,23.6,57.22c28.87,83.54,86.65,141.35,160.87,184.8
		c63.86,37.38,132.95,58.85,206.49,67.83c74.72,9.13,149.65,14.07,224.72,11.07c77.65-3.1,155.33-7.5,231.21-27.67
		c50.57-13.44,95.32-38.35,139.46-64.95c19.63-11.83,39.32-23.67,56.18-39.59c48.98-46.26,77.02-104.89,98.91-167.09
		c5.4-15.34,9.12-31.27,14.97-46.54c-2.02,26.43-9.43,51.59-17.92,76.37c-14.05,41-32.54,79.84-59,114.51
		c-17.04,22.32-37.27,41.74-59.99,57.71c-40.34,28.35-79.69,58.58-126.56,76.36c-54.76,20.78-110.63,36.19-169.02,43.53
		c-77.71,9.76-155.7,9.48-233.42,6.29c-75.06-3.08-149.19-16.14-219.54-44.58c-48.68-19.68-93.68-46.03-134.38-79.27
		c-21.5-17.56-44.29-33.79-61.83-55.78c-28.64-35.92-46.28-77.55-61.26-120.33c-5.69-16.24-13.66-32.14-13.26-50.1L1924.16,387.17z"
		/>
	<path class="st5" d="M1924.39,386.99c-4.18-3.23-5.03-7.16-2.3-12.52c3,4.26,1.72,8.63,2.08,12.7
		C1924.16,387.17,1924.39,386.99,1924.39,386.99z"/>
	<path class="st6" d="M2066.23,445.69c-24-28.8-42.42-60.69-53.74-96.54c-1.88-38.96,15.35-60.01,56.06-64.14
		c33.92-3.45,68.19-3.27,102.19,0.45c72.66,7.94,145.39,13.32,218.54,15.42c48.68,1.4,97.35,4.23,146.05,3.25
		c83.48-1.68,166.68-8.73,249.91-15c39.54-2.98,79.02-7.38,118.81-5.7c17.52,0.74,34.74,3,51.28,8.77
		c26.59,9.27,34.71,22.85,31.28,50.7c-0.59,4.83-1.27,9.67-1.04,14.56c-10.89,31.28-29.5,58.03-49.34,84.06
		c-19.85,22.58-41.43,43.17-67.59,58.43c-65.86,38.42-136.38,61.82-212.36,71.32c-123.3,15.41-245.96,15.37-367.83-9.88
		c-79.57-16.49-153.26-46.37-212.49-104.87C2072.49,453.08,2069.11,449.63,2066.23,445.69z"/>
	<path class="st2" d="M2985.58,357.47c-5.71-6.7-3.39-14.78-2.94-22.08c1.12-18.36-8.57-28.7-24.17-34.73
		c-14.98-5.78-30.72-8.98-46.76-9.6c-45.27-1.77-90.23,2.06-135.22,6.87c-23.44,2.51-47.12,3.66-70.67,4.84
		c-34.7,1.75-69.47,3.78-104.07,6.13c-42.48,2.89-84.87,3.11-127.22,2.18c-70.88-1.56-141.75-4.52-212.54-8.36
		c-31.8-1.73-63.34-8.13-95.14-10.36c-35.32-2.47-71.01-5.69-106.1,1.38c-32.23,6.5-40.8,17.23-45.33,50.03
		c-0.26,1.89-1.92,3.58-2.92,5.36c-6.38-11.77-9.41-24.7-12-37.59c-5.33-26.59,2.06-38.86,27.83-47.26
		c26.8-8.74,54.3-10.6,82.39-8.76c42.38,2.77,84.28,9.31,126.4,14.19c73.38,8.5,147.14,9.06,220.88,9.1
		c67.48,0.04,134.99,0.62,202.42-1.3c61.17-1.74,121.99-9.08,182.6-17.7c34.59-4.92,69.28-5.14,104.04-2.29
		c0.69,0.06,1.39,0.11,2.08,0.2c44.92,5.67,59.12,26.75,46.93,70.33C2993.26,338.06,2989.11,347.68,2985.58,357.47z"/>
	<path class="st7" d="M2066.23,445.69c18.3,10.21,32.77,25.51,49.89,37.36c57.67,39.9,122.06,62.69,190.4,75.25
		c38.2,7.02,76.81,10.55,115.58,13.78c38.29,3.19,76.49,4.02,114.58,2.36c66.5-2.9,133.4-6.62,197.75-24.78
		c72.1-20.34,139.93-50.38,194.82-103.88c1.9-1.86,4.65-2.85,7-4.25c-13.08,24.47-33.04,43.11-54.72,59.09
		c-72,53.07-152.62,84.94-241.66,96.17c-59.63,7.52-119.37,10.68-179.21,6.96c-56.16-3.49-112.63-5.93-167.58-20.13
		c-62.04-16.03-118.82-43.82-171.55-79.56C2099.21,488.93,2079.23,470.28,2066.23,445.69z"/>
</g>
<g>
	<polygon class="st8" points="2851.52,3163.78 2788.6,3193.09 2803.95,3211.58 2862.98,3196.9 	"/>
	<polyline class="st8" points="2237.14,3072.66 2016.4,2955.52 1868.6,2656.5 1823.82,2402.48 1887.42,2065.77 2039.17,1918.61 
		2154.19,1832.28 2291.37,1650.2 2369.46,1530.84 2415.1,1390.24 2427.53,1244.69 2416.88,1108.03 2379.61,978.46 2427.53,1013.96 
		2514.5,1079.63 2624.54,1177.25 2771.86,1331.67 2908.53,1523.35 3001.8,1686.65 3050.52,1883.66 3061.17,2041.63 3061.17,2101.97 
		3068.27,2148.12 3126.84,2065.81 3151.69,1958.21 3151.69,1918.61 3204.94,2025.56 3258.18,2114.4 3270.61,2179.99 
		3284.81,2265.81 3297.23,2394.47 3279.48,2478.25 3258.18,2581.2 3229.79,2656.5 3218.66,2675.44 3185.41,2732.07 3139.11,2815.55 
		3231.56,2692.61 3259.65,2630.65 3283.08,2622.77 3315.48,2590.37 3366.2,2523.2 3399.25,2480.53 3402.41,2506.56 3395.3,2563.65 
		3372.38,2656.5 3343.14,2734.99 3317.06,2802.95 3226.18,2942.83 3102.9,3066.11 2965.4,3154.62 2876.89,3186.23 2816.83,3206.94 
		2835.02,3165.76 2853.52,3149.08 2926.94,3029.57 2969.27,2929.23 2982.95,2801.97 2948.11,2700.8 2908.01,2601.81 2838.94,2537.2 
		2744.26,2480.39 2750.94,2575.08 2711.51,2623.27 2664.95,2680.93 2571.98,2646.77 2539.33,2555.21 2520.75,2506.22 
		2586.08,2394.47 2693.24,2279.41 2803.95,2092.7 2824.09,1991.37 2828.19,1903.17 2816.14,1806.06 2794.87,1761.63 
		2750.65,1729.61 2640.59,1592.14 2597.84,1555.14 2628.69,1629.25 2642.62,1675.66 2647.26,1746.81 2638.56,1810.58 
		2627.18,1837.02 2622.51,1901.49 2596.74,1942.17 2320.01,2300.55 2203.33,2470.7 2169.3,2656.5 2183.22,2804.8 2259.02,3027.54 
		2237.14,3072.66 	"/>
	<path class="st9" d="M2290.42,1631.09c3.29,3.84-5.48,22.88,10.55,9.76c7.72-6.31,11.53-17.63,21.78-22.32
		c10.1,17.56-4.4,28.53-12.17,40.03c-45.97,67.96-100.55,129.22-152.96,192.07c-88.04,105.59-168.25,215.88-220.42,344.25
		c-24.58,60.47-34,124.48-43.05,188.59c-4.46,14.64-0.6,30.16-4.75,44.68c-1.62,5.66-3.13,13.4-11.73,12.09
		c-6.12-0.93-8.13-6.99-8.92-12.13c-3.98-25.58-1.2-51.39-2.04-77.05c-0.04-70.31,19.64-136.28,47.83-199.57
		c45.35-101.83,99.68-199.77,175.7-281.13c68.69-73.51,39.58-217.48-34.47-259.1c-16.2-9.1-39.42-14.03-44.3-37.96
		c6.1,0.8,12.66,0.44,18.2,2.64c15.12,6.01,9.23-3.97,8.44-10.29c98.04,50.11,125.54,133.71,110.86,241.39
		C2202.98,1749.99,2243.17,1687.65,2290.42,1631.09z"/>
	<path class="st9" d="M2828.19,3218.44c4.86-7.38,12.88-9.74,20.42-12.87c4.26-1.77,11.89-2.4,7.22-9.16
		c-2.08-3.01-9.28-2.47-14.16-3.54c0.67-19.81,18.4-18.09,29.99-22.38c201.52-74.53,349.83-207.55,443.93-400.98
		c11.69-24.03,14.25-52.4,34.27-72.49c13.73-6.41,13.73-6.41,16.34,3.77c-32.67,113.76-93.18,211.73-173.24,297.52
		c-97.4,104.36-217.21,173.99-351.99,218.86C2837.01,3218.5,2832.46,3218.06,2828.19,3218.44z"/>
	<path class="st9" d="M3366.2,2700.8c-3.93-7.09-8.23-1.92-12.43-0.37c-6.96-6.01-5.63-13.79-3.32-20.87
		c18.64-57.15,30-115.98,40.12-175.07c-0.68,11.51-7.48,20.41-13.79,29.12c-28.41,39.27-60.74,75.17-96.91,107.41
		c-8.28,7.38-16.39,18.09-30.52,13.75c0.45-9.35,3.7-17.5,10.33-24.15c57.85-43.36,96.96-96.67,153.41-204.12
		C3413.04,2520.4,3403,2612.72,3366.2,2700.8z"/>
	<path class="st10" d="M2731.11,3243.76c31.11-13.42,62.6-25.4,97.22-25.39C2797.46,3232.69,2765,3240.95,2731.11,3243.76z"/>
	<path class="st9" d="M2341.84,1545.81c-3.91,18.65-7.28,37.62-27.78,46.33C2322.54,1576.23,2328.57,1558.85,2341.84,1545.81z"/>
	<path class="st9" d="M2341.77,3181.86c-34.49-21.66-61.26-51.5-87.52-81.99c-8.91-10.35-19.08-19.62-28.68-29.38
		c-7.16-7.4-11.96-15.79-11.07-26.55c-125.51-202.26-138.25-477.11,26.03-704.38c39.83-55.1,81.29-108.72,128.93-157.35
		c9.17-4.3,14.5-2.89,12.97,8.72c-65.33,77.5-128.55,156.24-176.06,246.74c-124.6,237.35-57.65,566.25,151.07,721.1
		c2.52,1.87,4.33,4.71,6.48,7.09C2357.56,3172.61,2330.15,3150.23,2341.77,3181.86z"/>
	<path class="st9" d="M2382.43,2190.93c-2.28-5.95-6.94-8.35-12.97-8.72c53.24-59.05,107.4-117.31,159.44-177.39
		c42.98-49.62,84.19-101.02,98.28-167.8c24-113.73-2.71-216.89-65.73-312.36c-2.73-4.13-5.65-8.13-13.65-19.59
		c40.16,20.82,66.31,45.87,93.48,68.98c54.3,46.19,102.63,98.08,141.12,158.47c5.66,8.88,12.7,17.53,12.46,29.1
		c-13.25-9.32-17.76-25.19-27.69-36.93c-8.21-9.7-8.68-0.37-10.26,5.13c-44.42-58-88.19-116.59-145.24-163.37
		c-4.13-3.39-8.26-6.77-13.84-11.33c-0.6,4.33-2.15,7.57-1.15,9.51c86.17,167.62,65.55,320.76-61.83,459.64
		C2483.97,2079.77,2433.23,2135.38,2382.43,2190.93z"/>
	<path class="st10" d="M2835.1,1869.18c14.66,48.65,15.26,97.31,0.06,145.99C2835.14,1966.51,2835.12,1917.85,2835.1,1869.18z"/>
	<path class="st10" d="M2808.19,2015.11c10.08-52.33,9.16-104.77,1.57-157.28C2829.77,1910.46,2828.43,1962.88,2808.19,2015.11z"/>
	<path class="st10" d="M2821.76,3179.25c-1.87,6.72-11.11,9.4-9.86,18.05c9.9-1.46,19.71-2.9,29.53-4.34
		c-3.34,2.55-6.36,5.77-10.07,7.54c-10.63,5.05-26.08,11.67-31.13-0.3C2794.92,3187.61,2809.49,3181.45,2821.76,3179.25z"/>
	<path class="st9" d="M2214.5,3043.95c7.23,7.37,10.8,16.27,11.06,26.55c-111.71-65.09-194.05-158.53-256.65-269.91
		c-74.9-133.27-106.59-277.12-99.3-429.68c0.46-9.61-0.87-19.52,5.44-27.98c0,29.97,0,59.95,0,99.42
		c12.95-26.97,0.16-48.39,12.74-65.39c-3.52,114.08,10.85,225.21,53.45,331.93c52.34,131.14,134.89,239.35,246.39,325.54
		C2194.76,3039.94,2201.32,3053.09,2214.5,3043.95z"/>
	<polygon class="st9" points="2214.5,3043.95 2164.49,2909.33 2134.58,2751.5 2134.58,2649.24 2149.93,2565.17 2189.41,2440.38 
		2272.47,2307.61 2406.17,2151.99 2528.9,2004.82 2578.97,1942.17 2618,1869.18 2638.56,1810.58 2638.56,1706.81 2609.67,1599.84 
		2574.37,1530.84 2596.3,1543.15 2619.09,1563.6 2657.81,1600.38 2707.93,1648.93 2752.48,1708.42 2785.11,1785.97 2816.14,1862.99 
		2832.82,1918.61 2824.09,1991.37 2766.54,2160.69 2646.23,2342.93 2586.08,2394.47 2550.43,2449.2 2508.1,2530.52 2519.24,2609.61 
		2582.17,2686.47 2642.89,2692.61 2725.32,2648.97 2750.94,2575.08 2744.26,2480.39 2777.68,2491.53 2838.94,2537.2 
		2908.01,2601.81 2948.11,2700.8 2969.27,2873.61 2926.94,3029.57 2815.55,3169.92 2706.38,3223.29 2527.21,3243.76 
		2320.01,3158.78 	"/>
	<g>
		<path d="M2554.65,1308.62c7.41,14.56,16.45,28.17,24.84,42.15c40.04,66.7,80.28,133.28,120.39,199.93
			c60.56,100.62,121.07,201.28,181.64,301.89c54.64,90.77,109.34,181.51,164.03,272.25c34.48,57.21,69,114.41,103.49,171.61
			c3.88,6.43,3.91,6.51-2.72,10.43c-61.49,36.36-123,72.69-184.48,109.05c-68.08,40.26-136.16,80.52-204.22,120.82
			c-61.9,36.65-123.76,73.35-185.64,110.03c-4.73,2.8-9.59,5.39-14.18,8.41c-2.96,1.95-5.29,1.6-8.2-0.14
			c-58.26-34.62-116.56-69.17-174.88-103.7c-69.34-41.07-138.7-82.11-208.06-123.15c-65.92-39-131.85-77.99-197.78-116.98
			c-3.15-1.86-6.25-3.85-9.52-5.48c-3.68-1.84-4.09-3.8-1.88-7.41c13.83-22.59,27.45-45.31,41.11-68
			c37.46-62.23,74.88-124.48,112.35-186.69c46.24-76.77,92.53-153.51,138.76-230.29c39.02-64.79,77.96-129.62,116.99-194.39
			c41.09-68.2,82.28-136.35,123.38-204.54c21.24-35.24,42.39-70.53,63.58-105.79C2553.99,1308.62,2554.32,1308.62,2554.65,1308.62z
			 M2571.02,1398.91c-0.44,0.12-0.89,0.24-1.33,0.36c0,2.13,0,4.26,0,6.39c0,83.32,0.01,166.64,0.01,249.96
			c0.01,121.98,0.06,243.96-0.13,365.94c-0.01,6.01,1.99,8.97,7.29,11.17c10.45,4.34,20.67,9.22,30.98,13.9
			c50.02,22.71,100.05,45.41,150.05,68.15c45.46,20.67,90.89,41.42,136.36,62.09c63.95,29.07,127.92,58.11,191.89,87.15
			c1.87,0.85,3.69,2.06,6.76,1.77C2918.72,1976.44,2744.87,1687.67,2571.02,1398.91z M2536.75,1398.59
			c-174.34,289.55-348.31,578.47-522.28,867.39c12.14-4.24,23.35-9.27,34.54-14.38c35.44-16.17,70.84-32.4,106.3-48.53
			c49.24-22.4,98.53-44.72,147.78-67.1c34.55-15.7,69.08-31.47,103.63-47.17c41.52-18.87,83.04-37.76,124.64-56.45
			c4.83-2.17,6.41-4.99,6.4-10.24c-0.12-205.79-0.09-411.58-0.11-617.36C2537.66,1402.98,2538.1,1401.12,2536.75,1398.59z
			 M2569.72,2337.22c0.01,0,0.03,0,0.04,0c0,88.98,0,177.97,0.02,266.95c0,1.62-0.75,3.78,0.62,4.74c1.54,1.07,3.03-0.77,4.39-1.57
			c40.73-24.02,81.44-48.06,122.14-72.14c85.4-50.53,170.79-101.09,256.19-151.63c44.42-26.29,88.85-52.56,133.25-78.86
			c1.25-0.74,3.36-1.16,3.4-2.64c0.05-1.96-2.29-2.11-3.7-2.75c-17.86-8.17-35.76-16.26-53.65-24.38
			c-44.87-20.36-89.76-40.69-134.61-61.09c-43.03-19.57-86.02-39.25-129.05-58.83c-45.76-20.82-91.54-41.59-137.31-62.39
			c-18.94-8.61-37.89-17.21-56.78-25.93c-3.6-1.66-5.35-1.27-4.97,3.09c0.09,0.99,0.01,2,0.01,3
			C2569.72,2160.92,2569.72,2249.07,2569.72,2337.22z M2016.4,2301.66c1.53,1.07,2.16,1.58,2.85,1.99
			c35.7,21.08,71.41,42.12,107.09,63.23c77.09,45.61,154.16,91.26,231.25,136.88c58.6,34.68,117.24,69.3,175.8,104.06
			c3.88,2.31,4.49,1.06,4.23-2.59c-0.09-1.33-0.01-2.67-0.01-4c0.01-168.63,0.02-337.26,0.03-505.9c0-8.5-0.13-17,0.05-25.49
			c0.09-4.29-1.32-4.82-4.99-3.14c-33.15,15.16-66.37,30.19-99.54,45.3c-39.69,18.09-79.34,36.26-119.03,54.32
			c-45.3,20.62-90.64,41.15-135.96,61.73c-38.2,17.34-76.4,34.67-114.59,52.03C2048.16,2287.08,2032.76,2294.17,2016.4,2301.66z"/>
		<path d="M2552.65,3228.61c-6.92-9.98-13.76-20.01-20.78-29.93c-44.08-62.27-88.2-124.52-132.31-186.77
			c-51.33-72.45-102.68-144.88-154-217.34c-46.11-65.12-92.17-130.28-138.29-195.39c-41.5-58.59-83.05-117.13-124.57-175.71
			c-4.71-6.64-9.33-13.35-13.4-20.99c2.15,1.19,4.33,2.33,6.44,3.58c67.06,39.7,134.1,79.45,201.19,119.11
			c55.47,32.8,111.03,65.46,166.5,98.27c61.92,36.62,123.78,73.35,185.67,110.02c6.59,3.9,13.27,7.66,19.78,11.7
			c3.21,1.99,5.78,1.94,9.13-0.05c43.94-26.14,87.95-52.14,131.98-78.12c86.34-50.95,172.71-101.84,259.04-152.8
			c59.8-35.3,119.55-70.69,179.33-106.02c3.12-1.85,6.34-3.53,9.51-5.3c0.42,0.37,0.83,0.75,1.25,1.12
			c-195.15,274.87-390.31,549.75-585.46,824.62C2553.32,3228.61,2552.99,3228.61,2552.65,3228.61z M3026.63,2507.24
			c-0.28-0.23-0.55-0.45-0.83-0.68c-8.88,5.22-17.77,10.43-26.65,15.67c-106.8,63.09-213.6,126.17-320.4,189.28
			c-34.55,20.41-69.02,40.95-103.65,61.23c-3.78,2.21-5.4,4.46-5.4,8.94c0.12,120.98,0.1,241.95,0.14,362.93
			c0,1.5-0.73,3.27,1.13,4.82C2722.92,2935.29,2874.77,2721.26,3026.63,2507.24z M2536.47,3149.08c0.37-0.13,0.75-0.26,1.12-0.38
			c0-2.15,0-4.3,0-6.45c0-118.48-0.08-236.97,0.2-355.45c0.02-8.2-2.35-12.5-9.57-16.73c-72.27-42.32-144.25-85.15-216.32-127.82
			c-67.63-40.04-135.27-80.06-202.91-120.07c-9.08-5.37-18.23-10.65-27.34-15.97c-0.2,0.24-0.4,0.48-0.6,0.71
			C2232.86,2720.98,2384.67,2935.03,2536.47,3149.08z"/>
	</g>
	<path class="st9" d="M2731.11,3243.76c-70.33,23.62-141.29,27.58-215.77,21.03c-99.94-8.79-198.9-20.08-295.65-46.52
		c-180.9-49.43-340.16-133.75-456.38-286.58c-52.27-68.73-100.48-173.02-125.11-275.98c56.9,53.23,104.08,111.61,173.48,144.55
		c-16.38-21.78-33.29-43.18-49.05-65.4c-61.13-86.17-98.66-181.58-104.29-287.35c-4.68-87.94,22.82-169.57,57.94-248.95
		c48.62-109.91,118.01-207.69,180.11-309.74c25.75-42.32,49.73-85.6,66.36-132.63c21.84-61.77,24.06-123.84,6.43-186.98
		c-2.37-8.5-10.32-19.87-2.13-26.72c7.23-6.04,18.51-0.48,27.59,2.77c15.12,5.41,30.76,9.77,43.45,20.38
		c7.95,7.96,11.84,15.22-3.86,17.86c-5.83,0.98-12.09-1.62-17.57,2.02c-8.96,9.63-4.03,20.81-2.85,31
		c11.19,96.44-17.67,183.16-63.72,265.8c-56.65,101.67-124.48,196.98-173,303.28c-27.37,59.95-51.25,120.94-61.5,186.7
		c-15.49,99.32,8.65,190.97,55.69,276.83c45.43,82.93,103.68,156.14,181.04,212.63c12.63,9.22,32.8,20.21,25.95,36.59
		c-7.62,18.23-30.04,10.62-46.71,9c-69.24-6.72-126.4-40.06-178.36-79.69c83.88,189.2,319.62,336.77,618.72,385.12
		c-15.37-6.76-28.38-15.15-36.24-29.77c-11.28-30.75,9.62-25.64,27.13-24.41c13.16,2.23,23.56,10.16,34.73,16.66
		c148.95,86.59,325.63,71.35,444.49-75.74c83.36-103.15,118.61-219.14,93.32-350.33c-18.28-94.82-77.57-162.98-153.83-223.99
		c-4.55,21.85-2.21,39.97-2.66,57.81c-2.33,93.41-86.69,156.18-176.77,131.34c-92.03-25.38-142.6-113.76-118.82-206.29
		c17.93-69.76,64.08-120.88,110.46-172.37c57.81-64.18,112.03-131.18,156.59-205.59c22.95-38.33,34.93-81.11,51.93-121.86
		c15.61-48.35,16.04-96.77,0.98-145.28c-12.01-46.61-38.93-87.36-52.56-133.38c3.11-17.01,11.81-18.97,23.32-7.47
		c11.15,11.14,18.34,25.45,27.67,38.1c19.61,36.95,32.24,76.38,41.55,117.03c1.53,43.08,0.43,86.15,0.77,129.18
		c-4.92,67.56-33.36,126.58-68.33,182.8c-48.57,78.08-107.52,148.24-168.28,216.98c-37.7,42.65-69.92,88.09-68.02,148.99
		c0.66,20.98,5.66,40.48,18.3,57.62c27.5,37.27,73.65,53.54,110.82,39.04c35.14-13.72,58.12-57.99,52.15-105.42
		c-4.44-35.26-11.89-70.13-22.89-104.12c-2.61-8.07-6.13-17.81,0.82-24.6c8.55-8.34,18.54-2.23,26.82,2.06
		c134.44,69.62,235.26,168.99,267.25,321.85c18.9,90.34,9,180.24-32.68,264.65c-16.47,11.37-8.46,29.22-11.52,44.16
		c-34.78,50.51-73.71,97.25-122.77,134.78c-3.43,3.1-11.78,2.62-9.54,9.3c1.03,3.08,7.46,0.06,11.27-1.34
		c3.86-1.43,7.57-3.23,11.49-4.64c3.07-0.99,6.18-1.51,9.4-1.61c6.79,0.6,13.25,2.6,14.74,9.97c1.67,8.3-4.59,10.02-11.18,12.24
		c-7.97,2.69-16.32,4.75-23.61,9.29l0.14-0.08C2795.77,3226.23,2763.58,3235.5,2731.11,3243.76z"/>
	<path class="st9" d="M2341.84,1545.81c53.39-100.67,72.47-208.32,66.05-321.35c-5.29-93.2-26.26-182.88-58.68-270.14
		c-1.78-4.79-3.34-9.67-6.63-19.22c33.08,13.24,56.92,32.69,81.65,50.28c202.24,143.91,378.64,313.13,510.32,525.42
		c96.06,154.86,153.93,321.77,154.45,505.93c0.05,19.01-4.67,38.01,0.42,61.79c41.3-72.88,31.55-145.17,17.3-219.96
		c35.9,24.87,64.12,56.36,88.21,90.87c141.85,203.19,160.71,421.05,75.38,650.77c-3.74,10.07-7.12,20.28-10.66,30.43
		c2.73,10.93-2.6,20.3-5.73,30.14c-33.01,70.27-75.82,134.59-119.93,198.14c-8.04,11.59-17.48,21.74-29.18,29.73
		c-2.68,1.75-5.22,3.73-7.97,5.33c-7.03,4.11-14.49,12.61-22.51,5.19c-7.62-7.05-1.17-15.82,2.21-23.47
		c1.73-3.9,2.74-8.06,4.48-11.96c37.07-60.67,78.4-118.56,110.35-182.61c50.95-102.13,83.27-210.09,85.25-323.04
		c2.15-122.58-29.4-239.35-99.31-343.03c-1.3-1.93-3.27-2.73-7.96-2.82c-7.01,15.66-8.83,33.92-14.6,50.84
		c-25.12,73.67-65.64,138.09-116.73,196.27c-2.85,3.25-5.71,6.56-9.14,9.15c-7.52,5.7-15.3,15.37-25.27,8.71
		c-7.94-5.3-4.49-15.9-2.74-24.19c6.44-30.62,15.35-60.66,21.12-91.46c35.9-191.72,3.33-373.17-83.41-545.92
		c-91.44-182.12-222.93-332.35-374.35-466.7c-47.6-42.24-96.98-81.95-147.81-120.3c47.8,210.1,52.04,412.13-87.92,593.02
		c-7.02,7.7-13.73,15.69-20.92,23.2c-4.19,4.38-9.8,9.63-16.2,5.31c-7.73-5.21-5.16-12.48-0.95-19.11
		c7.88-12.98,15.76-25.96,23.64-38.94C2328.94,1580.07,2332.25,1561.06,2341.84,1545.81z"/>
	<polygon class="st9" points="1998.75,1565.65 2089.17,1624.31 2132.16,1710.28 2138.09,1822.94 2096.36,1891.13 2004.68,2015.17 
		1899.43,2272.08 1881.71,2396.6 1881.71,2516.67 1919.69,2673.76 1984.46,2817.03 2049.23,2910.74 2132.64,2996.12 2200.35,3049.6 
		2237.14,3072.66 2344.6,3176.68 2365.69,3196.3 2387.77,3223.29 2346.56,3223.29 2295.04,3214.46 2104.67,3156.56 1846.1,3001.02 
		1741.59,2846.96 1746.99,2788.08 1839.72,2838.13 1850.02,2842.05 1819.6,2751.28 1712.64,2553.55 1690.56,2377.39 
		1813.36,2054.95 1897.16,1956.11 1929.13,1869.18 1970.22,1801.39 1989.4,1724.04 	"/>
	<path class="st11" d="M2303.48,2360.53c6.34-0.01,8.88,1.95,9.61,8.09c2.08,17.37,6.64,34.16,13.27,50.34
		c32.51,79.37,90.41,130.68,174.03,149.06c84.51,18.57,159.44-3.93,221.94-63.98c37.48-36.01,60.26-80.4,68.79-131.85
		c1.91-11.52,1.94-11.51,13.86-11.51c183.32,0,330.9-4.42,514.21-2.7c3.45,0.03,0.73-1.24,1.94-0.63
		c0.36-14.28,0.6-17.76,0.36-32.09c-0.14-0.91,0.16-9.83,0-10.74c-0.58-3.2-0.11-7.83-0.62-11.12c-0.95,0.03-1.1,0-2.43,0
		c-183.75,0-331.76,2.53-515.51,2.54c-1.1,0-3.19,0.08-4.29,0.1c-3.94,0.05-5.27-1.98-5.83-6.22c-4.13-31.53-14.2-61.07-29.76-88.87
		c-57.88-103.43-186.68-150.66-296.83-106.68c-87.39,34.89-138.46,100.38-153.88,193.19c-1.16,6.97-3.54,8.62-10.28,8.62
		c-181.03-0.18-362.07-0.15-543.1-0.14c-9.29,0-73.98,1.62-83.27,1.68l-3.77,14.02l-2.62,10.86l-3.3,13.88l-2.53,15.21
		c2.49,0.07,72.61-0.93,75.1-0.93C1926.87,2360.67,2115.18,2360.7,2303.48,2360.53z M2553.01,2128.19
		c112.43,0.82,202.7,91.93,202.11,204.02c-0.59,112.66-91.65,202.75-204.46,202.27c-110.91-0.47-201.72-92.41-201.12-203.62
		C2350.15,2218.38,2441.51,2127.38,2553.01,2128.19z"/>
	<path class="st11" d="M1673.59,2317.22"/>
	<circle cx="2554.21" cy="2331.33" r="220.82"/>
	<text transform="matrix(0.5445 0 0 1 2345.6223 2410.0837)" class="st8 st12 st13">1559</text>
	<text transform="matrix(0.5588 0 0 1 2345.6223 2398.7312)" class="st9 st12 st14">1559</text>
	<text transform="matrix(0.8406 0 0 1 2390.9885 1981.2821)" class="st12 st15">EIP</text>
	<text transform="matrix(0.87 0 0 1 2389.2039 1973.0516)" class="st11 st12 st16">EIP</text>
</g>
</svg>
